<?xml version="1.0" encoding="UTF-8" standalone="no"?>
<!DOCTYPE svg PUBLIC "-//W3C//DTD SVG 1.1//EN" "http://www.w3.org/Graphics/SVG/1.1/DTD/svg11.dtd">
<svg width="100%" height="100%" viewBox="0 0 893 893" version="1.1" xmlns="http://www.w3.org/2000/svg" xmlns:xlink="http://www.w3.org/1999/xlink" xml:space="preserve" xmlns:serif="http://www.serif.com/" style="fill-rule:evenodd;clip-rule:evenodd;stroke-linejoin:round;stroke-miterlimit:2;">
    <g id="note" transform="matrix(0.961474,0,0,0.774521,0,0)">
        <path d="M191.5,1123.3C126.4,1118.7 88,1065.9 96.1,992.2C102.9,929.6 145.9,869.1 203.2,841.2C225.5,830.3 242.8,826.1 268,825.3C292.6,824.6 306.5,827.2 324.5,835.9L332,839.6L332,507.8C332,197.1 332.1,176 333.7,176C335.4,176 377.9,165.8 477,141.5C504.8,134.7 544.4,125 565,120C627,104.9 651.3,98.9 740.9,77C788,65.4 827.8,56 829.2,56L831.9,56L832.2,446.3C832.4,660.9 832.2,841 831.7,846.4C827.1,907.2 782.8,971.1 725.5,999.5C710.6,1006.8 699,1010.9 684,1014.1C669.1,1017.3 641.8,1017.4 628.1,1014.2C610.1,1010 596.1,1002.7 583.3,990.6C570,978 561.3,964.1 555.6,946.1C550.8,930.8 549.7,921.7 550.3,899C550.9,875.9 552.2,868 559,847.7C574.6,801 611.2,758.3 653.8,737C679.9,724 700.4,719 728,719C748.2,719 763.9,722.4 778.8,729.9L785,733L785,541.9C785,371.3 784.8,350.8 783.5,351.4C782.6,351.7 768.6,355.4 752.2,359.5C711.6,369.9 692.6,374.8 635,389.6C607.8,396.5 539.2,414 482.5,428.5L379.5,454.7L379,707.6L378.4,960.5L376.2,970.3C366.1,1014.3 342.7,1053 309,1081.2C277.4,1107.9 243.5,1121.9 207.5,1123.3C201.5,1123.5 194.3,1123.5 191.5,1123.3ZM537,330.5C583.5,318.7 658.3,299.7 703.2,288.2L785,267.5L785,243.8C785,230.7 784.7,220 784.4,220C784.1,220 764.5,225 740.9,231C717.3,237.1 678.8,246.9 655.3,253C604.5,266 544.6,281.2 458,303.1C423.1,311.9 391,320 386.8,321.2L379,323.2L379,370.8L415.8,361.5C436,356.3 490.5,342.4 537,330.5Z" style="fill:rgb(240,242,235);fill-rule:nonzero;"/>
    </g>
    <g id="background" transform="matrix(0.961474,0,0,0.774521,0,0)">
        <path d="M0,1152L0,0L928,0L928,1152L0,1152ZM224,1118.3C272.3,1110.4 321.4,1074.5 350,1026C360.7,1007.9 368.2,989 373.2,967.3L375.4,957.5L376,704.6L376.5,451.7L479.5,425.5C536.2,411 604.8,393.5 632,386.6C693.2,370.9 711.9,366.1 747.5,357C762.9,353.1 777.7,349.2 780.4,348.4C783.1,347.6 786,347 786.7,347C787.8,347 788,381.5 788,543.6L788,740.1L785.3,738.2C776.2,731.8 760.1,725.7 746.5,723.5C701.4,716.1 649.9,735.1 611.1,773.3C583,800.9 564.2,834.7 555.9,872.1C553,885.4 552.2,913.1 554.4,925.6C557.5,943.5 564.3,960.6 573.5,973.6C579,981.2 593,994.5 600.3,998.8C609.1,1004.1 621,1008.9 631.1,1011.2C644.5,1014.2 666.4,1014.2 681,1011.1C726.9,1001.4 768.7,972 797.2,929.6C815.3,902.6 826.6,871.4 828.7,843C829.2,837.2 829.3,658.5 829,445.9L828.5,59.2L799,66.5C754.3,77.5 587.5,118.3 527,133C509.1,137.4 459.4,149.5 416.5,160C373.6,170.4 337.7,179 336.8,179C335.1,179 335,195.6 335,513L335,847L329,843.1C321.6,838.3 308,832.8 297.5,830.4C285.6,827.6 258.2,827.8 244.7,830.8C198.5,841 157.5,870.4 128.8,913.9C85.3,979.7 88.7,1060.4 136.5,1098.6C159.8,1117.3 189.5,1124 224,1118.3Z" style="fill:rgb(0,56,0);fill-rule:nonzero;"/>
        <path d="M376,347.6L376,320.2L383.8,318.2C388,317 420.1,308.9 455,300.1C541.3,278.2 601.4,263 652,250C675.4,244 713.2,234.4 736,228.5C758.8,222.7 779.7,217.2 782.4,216.4C785.1,215.6 787.5,215 787.7,215C787.9,215 788,227.5 788,242.8L788,270.5L731.7,284.7C700.8,292.6 640.2,308 597,319C470.2,351.4 377.3,375 376.6,375C376.3,375 376,362.7 376,347.6Z" style="fill:rgb(0,56,0);fill-rule:nonzero;"/>
    </g>
</svg>
