<?xml version="1.0" encoding="UTF-8" standalone="no"?>
<!DOCTYPE svg PUBLIC "-//W3C//DTD SVG 1.1//EN" "http://www.w3.org/Graphics/SVG/1.1/DTD/svg11.dtd">
<svg width="100%" height="100%" viewBox="0 0 893 893" version="1.1" xmlns="http://www.w3.org/2000/svg" xmlns:xlink="http://www.w3.org/1999/xlink" xml:space="preserve" xmlns:serif="http://www.serif.com/" style="fill-rule:evenodd;clip-rule:evenodd;stroke-linejoin:round;stroke-miterlimit:2;">
    <g id="background">
        <rect x="0" y="0" width="892.248" height="892.248" style="fill:rgb(0,56,0);"/>
    </g>
    <g transform="matrix(0.7218,0,0,0.51332,93.84788,143.406404)">
        <g id="note">
            <path d="M191.5,1123.3C126.4,1118.7 88,1065.9 96.1,992.2C102.9,929.6 145.9,869.1 203.2,841.2C225.5,830.3 242.8,826.1 268,825.3C292.6,824.6 306.5,827.2 324.5,835.9L332,839.6L332,507.8C332,197.1 332.1,176 333.7,176C335.4,176 377.9,165.8 477,141.5C504.8,134.7 544.4,125 565,120C627,104.9 651.3,98.9 740.9,77C788,65.4 827.8,56 829.2,56L831.9,56L832.2,446.3C832.4,660.9 832.2,841 831.7,846.4C827.1,907.2 782.8,971.1 725.5,999.5C710.6,1006.8 699,1010.9 684,1014.1C669.1,1017.3 641.8,1017.4 628.1,1014.2C610.1,1010 596.1,1002.7 583.3,990.6C570,978 561.3,964.1 555.6,946.1C550.8,930.8 549.7,921.7 550.3,899C550.9,875.9 552.2,868 559,847.7C574.6,801 611.2,758.3 653.8,737C679.9,724 700.4,719 728,719C748.2,719 763.9,722.4 778.8,729.9L785,733L785,541.9C785,371.3 784.8,350.8 783.5,351.4C782.6,351.7 768.6,355.4 752.2,359.5C711.6,369.9 692.6,374.8 635,389.6C607.8,396.5 539.2,414 482.5,428.5L379.5,454.7L379,707.6L378.4,960.5L376.2,970.3C366.1,1014.3 342.7,1053 309,1081.2C277.4,1107.9 243.5,1121.9 207.5,1123.3C201.5,1123.5 194.3,1123.5 191.5,1123.3ZM537,330.5C583.5,318.7 658.3,299.7 703.2,288.2L785,267.5L785,243.8C785,230.7 784.7,220 784.4,220C784.1,220 764.5,225 740.9,231C717.3,237.1 678.8,246.9 655.3,253C604.5,266 544.6,281.2 458,303.1C423.1,311.9 391,320 386.8,321.2L379,323.2L379,370.8L415.8,361.5C436,356.3 490.5,342.4 537,330.5Z" style="fill:rgb(240,242,235);fill-rule:nonzero;"/>
        </g>
    </g>
</svg>
